<svg width="512" height="512" viewBox="0 0 512 512" fill="none" xmlns="http://www.w3.org/2000/svg">
<rect x="6" y="6" width="500" height="500" rx="24" fill="white"/>
<path fill-rule="evenodd" clip-rule="evenodd" d="M488 16H24C19.5817 16 16 19.5817 16 24V488C16 492.418 19.5817 496 24 496H488C492.418 496 496 492.418 496 488V24C496 19.5817 492.418 16 488 16ZM24 0C10.7452 0 0 10.7452 0 24V488C0 501.255 10.7452 512 24 512H488C501.255 512 512 501.255 512 488V24C512 10.7452 501.255 0 488 0H24Z" fill="black"/>
<path fill-rule="evenodd" clip-rule="evenodd" d="M94 192C94 165.49 115.49 144 142 144H160V140C160 120.118 176.118 104 196 104H316C335.882 104 352 120.118 352 140V144H370C396.51 144 418 165.49 418 192V361C418 387.51 396.51 409 370 409H142C115.49 409 94 387.51 94 361V192ZM142 160C124.327 160 110 174.327 110 192V361C110 378.673 124.327 393 142 393H370C387.673 393 402 378.673 402 361V192C402 174.327 387.673 160 370 160H142ZM316 120H196C184.954 120 176 128.954 176 140V144H336V140C336 128.954 327.046 120 316 120Z" fill="black"/>
<path d="M180.426 283.853C176.521 287.758 170.19 287.758 166.284 283.853C162.379 279.948 162.379 273.616 166.284 269.711L180.426 255.569L166.284 241.426C162.379 237.521 162.379 231.19 166.284 227.284C170.19 223.379 176.521 223.379 180.426 227.284L194.569 241.426L208.711 227.284C212.616 223.379 218.948 223.379 222.853 227.284C226.758 231.19 226.758 237.521 222.853 241.426L208.711 255.569L222.853 269.711C226.758 273.616 226.758 279.948 222.853 283.853C218.948 287.758 212.616 287.758 208.711 283.853L194.569 269.711L180.426 283.853Z" fill="black"/>
<path d="M303.426 283.853C299.521 287.758 293.19 287.758 289.284 283.853C285.379 279.948 285.379 273.616 289.284 269.711L303.426 255.569L289.284 241.426C285.379 237.521 285.379 231.19 289.284 227.284C293.19 223.379 299.521 223.379 303.426 227.284L317.569 241.426L331.711 227.284C335.616 223.379 341.948 223.379 345.853 227.284C349.758 231.19 349.758 237.521 345.853 241.426L331.711 255.569L345.853 269.711C349.758 273.616 349.758 279.948 345.853 283.853C341.948 287.758 335.616 287.758 331.711 283.853L317.569 269.711L303.426 283.853Z" fill="black"/>
<rect x="186" y="327" width="140" height="20" rx="10" fill="black"/>
</svg>
