<svg width="512" height="512" viewBox="0 0 512 512" fill="none" xmlns="http://www.w3.org/2000/svg">
<rect x="6" y="6" width="500" height="500" rx="24" fill="white"/>
<path fill-rule="evenodd" clip-rule="evenodd" d="M94 192C94 165.49 115.49 144 142 144H160V140C160 120.118 176.118 104 196 104H316C335.882 104 352 120.118 352 140V144H370C396.51 144 418 165.49 418 192V361C418 387.51 396.51 409 370 409H142C115.49 409 94 387.51 94 361V192ZM142 160C124.327 160 110 174.327 110 192V361C110 378.673 124.327 393 142 393H370C387.673 393 402 378.673 402 361V192C402 174.327 387.673 160 370 160H142ZM316 120H196C184.954 120 176 128.954 176 140V144H336V140C336 128.954 327.046 120 316 120Z" fill="black"/>
<path d="M227 256C227 274.318 212.357 289 194.5 289C176.643 289 162 274.318 162 256C162 237.682 176.643 223 194.5 223C212.357 223 227 237.682 227 256Z" stroke="black" stroke-width="16"/>
<path d="M350 256C350 274.318 335.357 289 317.5 289C299.643 289 285 274.318 285 256C285 237.682 299.643 223 317.5 223C335.357 223 350 237.682 350 256Z" stroke="black" stroke-width="16"/>
<mask id="path-5-outside-1" maskUnits="userSpaceOnUse" x="167" y="319" width="179" height="36" fill="black">
<rect fill="white" x="167" y="319" width="179" height="36"/>
<path d="M187.965 350.617C186.93 350.617 186.16 350.464 185.655 350.157C185.15 349.851 184.784 349.468 184.557 349.008C183.244 346.276 182.007 343.658 180.846 341.156C179.71 338.653 178.548 336.125 177.362 333.572C177.387 336.33 177.425 339.075 177.475 341.807C177.526 344.539 177.576 347.285 177.627 350.042C177.627 350.425 177.425 350.617 177.021 350.617H174.938C173.499 350.617 172.477 350.336 171.871 349.774C171.29 349.187 171 348.332 171 347.208C171 346.902 171.013 346.391 171.038 345.676C171.088 344.935 171.151 344.067 171.227 343.071C171.303 342.075 171.379 340.99 171.454 339.815C171.555 338.615 171.656 337.402 171.757 336.176C171.909 334.236 172.035 332.627 172.136 331.35C172.237 330.073 172.313 329.001 172.363 328.133C172.439 327.239 172.489 326.486 172.515 325.873C172.54 325.234 172.565 324.609 172.59 323.996C172.59 323.613 172.792 323.421 173.196 323.421H176.226C177.059 323.421 177.741 323.523 178.271 323.728C178.801 323.907 179.23 324.162 179.558 324.494C179.912 324.826 180.189 325.209 180.391 325.643C180.593 326.052 180.783 326.486 180.959 326.945C181.565 328.528 182.095 329.895 182.55 331.044C183.03 332.193 183.446 333.202 183.799 334.07C184.153 334.938 184.456 335.691 184.708 336.33C184.986 336.968 185.238 337.555 185.466 338.092C185.693 338.628 185.92 339.151 186.147 339.662C186.375 340.147 186.614 340.684 186.867 341.271C186.867 339.764 186.854 338.219 186.829 336.636C186.829 335.027 186.816 333.47 186.791 331.963C186.791 330.431 186.778 328.963 186.753 327.558C186.753 326.154 186.753 324.89 186.753 323.766C186.753 323.536 186.968 323.421 187.397 323.421H189.48C190.313 323.421 190.969 323.511 191.449 323.689C191.954 323.843 192.345 324.085 192.623 324.417C192.901 324.724 193.077 325.107 193.153 325.566C193.254 326.026 193.304 326.549 193.304 327.137C193.304 327.775 193.267 328.758 193.191 330.086C193.115 331.389 193.027 332.857 192.926 334.491C192.825 336.125 192.711 337.824 192.585 339.585C192.459 341.322 192.332 342.931 192.206 344.412C192.105 345.893 192.004 347.157 191.903 348.204C191.828 349.225 191.777 349.825 191.752 350.004C191.752 350.208 191.676 350.362 191.525 350.464C191.398 350.566 191.247 350.617 191.07 350.617H187.965Z"/>
<path d="M210.477 323C212.32 323 213.898 323.268 215.21 323.804C216.523 324.315 217.596 325.081 218.429 326.103C219.262 327.098 219.868 328.324 220.247 329.78C220.626 331.21 220.815 332.844 220.815 334.683C220.815 335.704 220.739 336.815 220.588 338.015C220.461 339.215 220.209 340.428 219.83 341.654C219.477 342.854 218.985 344.016 218.353 345.14C217.722 346.263 216.902 347.259 215.892 348.127C214.907 348.995 213.721 349.698 212.332 350.234C210.944 350.745 209.303 351 207.41 351C205.314 351 203.572 350.681 202.184 350.042C200.82 349.404 199.722 348.549 198.889 347.476C198.081 346.378 197.501 345.088 197.147 343.607C196.819 342.126 196.655 340.543 196.655 338.858C196.655 336.866 196.882 334.925 197.337 333.036C197.791 331.12 198.548 329.422 199.609 327.941C200.694 326.46 202.121 325.273 203.888 324.379C205.655 323.46 207.851 323 210.477 323ZM209.682 328.937C208.798 328.937 208.028 329.103 207.372 329.435C206.741 329.741 206.198 330.163 205.743 330.699C205.314 331.235 204.961 331.835 204.683 332.499C204.431 333.163 204.229 333.853 204.077 334.568C203.926 335.257 203.825 335.934 203.774 336.598C203.724 337.236 203.698 337.811 203.698 338.321C203.698 340.645 204.077 342.343 204.834 343.416C205.617 344.488 206.715 345.025 208.129 345.025C209.29 345.025 210.237 344.654 210.969 343.914C211.701 343.148 212.269 342.241 212.673 341.194C213.102 340.122 213.393 339.024 213.544 337.9C213.696 336.751 213.771 335.781 213.771 334.989C213.771 333.125 213.456 331.657 212.825 330.584C212.194 329.486 211.146 328.937 209.682 328.937Z"/>
<path d="M236.068 350.617C234.654 350.617 233.644 350.336 233.038 349.774C232.432 349.212 232.129 348.408 232.129 347.361C232.129 346.85 232.167 345.982 232.243 344.756C232.319 343.505 232.42 342.088 232.546 340.505C232.672 338.922 232.798 337.249 232.924 335.487C233.051 333.725 233.177 332.065 233.303 330.508C233.429 328.95 233.53 327.584 233.606 326.409C233.682 325.234 233.72 324.43 233.72 323.996C233.72 323.613 233.922 323.421 234.326 323.421H236.408C237.948 323.421 238.983 323.753 239.514 324.417C240.044 325.081 240.309 326.064 240.309 327.367C240.309 327.494 240.284 327.903 240.233 328.592C240.208 329.282 240.157 330.15 240.082 331.197C240.006 332.244 239.918 333.419 239.817 334.721C239.741 335.998 239.652 337.313 239.551 338.666C239.476 340.02 239.387 341.347 239.286 342.65C239.211 343.927 239.135 345.088 239.059 346.135C238.983 347.182 238.92 348.063 238.87 348.778C238.819 349.468 238.781 349.889 238.756 350.042C238.731 350.247 238.68 350.4 238.605 350.502C238.529 350.579 238.378 350.617 238.15 350.617H236.068Z"/>
<path d="M268.046 330.201C267.844 330.814 267.579 331.618 267.25 332.614C266.947 333.585 266.607 334.657 266.228 335.832C265.849 337.006 265.458 338.258 265.054 339.585C264.65 340.888 264.234 342.165 263.804 343.416C263.4 344.667 262.996 345.867 262.593 347.016C262.189 348.14 261.823 349.123 261.494 349.966C261.393 350.17 261.179 350.336 260.851 350.464C260.548 350.566 260.055 350.617 259.374 350.617C258.945 350.617 258.503 350.591 258.048 350.54C257.594 350.489 257.165 350.387 256.761 350.234C256.382 350.081 256.041 349.876 255.738 349.621C255.461 349.366 255.246 349.047 255.095 348.663C254.716 347.361 254.35 345.918 253.996 344.335C253.668 342.726 253.34 341.092 253.012 339.432C252.684 337.772 252.355 336.151 252.027 334.568C251.724 332.959 251.409 331.503 251.081 330.201C251.081 330.559 251.068 331.171 251.043 332.04C251.017 332.908 250.992 333.917 250.967 335.066C250.942 336.215 250.904 337.453 250.853 338.781C250.828 340.109 250.803 341.411 250.778 342.688C250.752 343.939 250.727 345.114 250.702 346.212C250.677 347.285 250.664 348.166 250.664 348.855C250.664 349.621 250.614 350.106 250.513 350.311C250.437 350.515 250.285 350.617 250.058 350.617H247.975C246.536 350.617 245.514 350.336 244.908 349.774C244.327 349.187 244.037 348.332 244.037 347.208C244.037 346.902 244.05 346.391 244.075 345.676C244.125 344.935 244.189 344.067 244.264 343.071C244.34 342.075 244.416 340.99 244.491 339.815C244.592 338.615 244.693 337.402 244.794 336.176C244.921 334.517 245.022 333.138 245.097 332.04C245.198 330.916 245.274 329.984 245.325 329.244C245.375 328.503 245.413 327.903 245.438 327.443C245.489 326.984 245.514 326.575 245.514 326.218C245.539 325.86 245.552 325.528 245.552 325.222C245.577 324.89 245.59 324.481 245.59 323.996C245.59 323.792 245.665 323.651 245.817 323.575C245.968 323.472 246.107 323.421 246.233 323.421H251.535C252.52 323.421 253.327 323.587 253.959 323.919C254.59 324.226 255.107 324.711 255.511 325.375C255.915 326.039 256.243 326.907 256.496 327.979C256.748 329.026 256.975 330.278 257.177 331.733C257.405 333.189 257.644 334.874 257.897 336.789C258.175 338.679 258.528 340.811 258.957 343.186C259.361 341.603 259.702 340.288 259.98 339.241C260.257 338.194 260.485 337.326 260.661 336.636C260.863 335.921 261.027 335.334 261.154 334.874C261.28 334.415 261.393 333.993 261.494 333.61C261.595 333.202 261.709 332.767 261.835 332.308C261.961 331.848 262.113 331.274 262.29 330.584C262.466 329.895 262.681 329.039 262.933 328.018C263.211 326.971 263.552 325.656 263.956 324.073C264.006 323.919 264.095 323.779 264.221 323.651C264.347 323.498 264.574 323.421 264.903 323.421H270.81C271.618 323.421 272.262 323.511 272.741 323.689C273.246 323.843 273.637 324.073 273.915 324.379C274.193 324.685 274.382 325.068 274.483 325.528C274.584 325.962 274.635 326.473 274.635 327.06C274.635 327.648 274.597 328.605 274.521 329.933C274.471 331.235 274.382 332.716 274.256 334.376C274.155 336.01 274.041 337.709 273.915 339.471C273.814 341.233 273.701 342.867 273.574 344.373C273.473 345.88 273.385 347.157 273.309 348.204C273.234 349.251 273.183 349.864 273.158 350.042C273.133 350.247 273.082 350.4 273.006 350.502C272.931 350.579 272.779 350.617 272.552 350.617H270.469C269.03 350.617 268.008 350.336 267.402 349.774C266.821 349.187 266.531 348.434 266.531 347.514C266.531 347.233 266.556 346.723 266.607 345.982C266.682 345.242 266.771 344.373 266.872 343.378C266.973 342.382 267.086 341.296 267.212 340.122C267.339 338.922 267.452 337.734 267.553 336.56C267.654 335.385 267.743 334.249 267.818 333.15C267.919 332.027 267.995 331.044 268.046 330.201Z"/>
<path d="M290.358 323.421C290.989 323.421 291.506 323.549 291.91 323.804C292.34 324.034 292.693 324.353 292.971 324.762C293.248 325.145 293.476 325.592 293.652 326.103C293.829 326.613 293.98 327.137 294.107 327.673C295.117 331.81 295.95 335.219 296.606 337.9C297.262 340.581 297.78 342.752 298.159 344.412C298.537 346.046 298.802 347.259 298.954 348.051C299.105 348.842 299.181 349.391 299.181 349.698C299.181 350.055 299.093 350.298 298.916 350.425C298.765 350.553 298.512 350.617 298.159 350.617H296.227C295.142 350.617 294.271 350.489 293.614 350.234C292.983 349.953 292.491 349.557 292.138 349.047C291.809 348.536 291.57 347.923 291.418 347.208C291.267 346.467 291.14 345.637 291.039 344.718H284.45L283.201 350.004C283.074 350.413 282.784 350.617 282.33 350.617H280.323C279.919 350.617 279.502 350.579 279.073 350.502C278.644 350.4 278.253 350.247 277.899 350.042C277.571 349.838 277.293 349.583 277.066 349.276C276.839 348.944 276.725 348.549 276.725 348.089C276.725 347.527 276.902 346.608 277.255 345.331C277.609 344.054 278.051 342.611 278.581 341.003C279.136 339.368 279.742 337.67 280.398 335.908C281.08 334.121 281.736 332.435 282.368 330.852C282.999 329.269 283.567 327.877 284.072 326.677C284.602 325.477 285.006 324.634 285.283 324.149C285.485 323.792 285.662 323.587 285.814 323.536C285.99 323.46 286.306 323.421 286.76 323.421H290.358ZM285.814 339.164H290.168L288.578 329.052L285.814 339.164Z"/>
<path d="M318.356 350.617C317.043 350.617 316.096 350.349 315.516 349.813C314.96 349.251 314.657 348.561 314.607 347.744C314.329 348.612 313.736 349.378 312.827 350.042C311.943 350.681 310.656 351 308.964 351C307.98 351 307.02 350.808 306.086 350.425C305.152 350.017 304.319 349.353 303.587 348.434C302.855 347.514 302.262 346.289 301.807 344.756C301.378 343.224 301.164 341.322 301.164 339.049C301.164 338.181 301.214 337.185 301.315 336.062C301.416 334.912 301.618 333.751 301.921 332.576C302.249 331.376 302.704 330.214 303.284 329.09C303.89 327.941 304.673 326.92 305.632 326.026C306.617 325.132 307.816 324.417 309.229 323.881C310.643 323.319 312.335 323.038 314.304 323.038C315.591 323.038 316.74 323.179 317.75 323.46C318.785 323.741 319.656 324.136 320.363 324.647C321.095 325.158 321.65 325.783 322.029 326.524C322.433 327.264 322.635 328.094 322.635 329.014C322.635 330.495 322.155 331.618 321.196 332.384C320.237 333.125 318.886 333.495 317.144 333.495C316.589 333.495 316.248 333.457 316.122 333.38C316.021 333.278 315.957 333.087 315.932 332.806C315.882 332.346 315.844 331.886 315.819 331.427C315.819 330.967 315.755 330.546 315.629 330.163C315.528 329.78 315.339 329.473 315.061 329.244C314.784 329.014 314.342 328.899 313.736 328.899C312.499 328.899 311.514 329.256 310.782 329.971C310.05 330.686 309.495 331.554 309.116 332.576C308.737 333.597 308.497 334.657 308.396 335.755C308.295 336.828 308.245 337.734 308.245 338.475C308.245 339.7 308.321 340.735 308.472 341.577C308.624 342.394 308.838 343.071 309.116 343.607C309.419 344.118 309.772 344.488 310.176 344.718C310.58 344.922 311.047 345.025 311.577 345.025C312.537 345.025 313.345 344.82 314.001 344.412C314.657 344.003 315.049 343.263 315.175 342.19L315.402 340.045C315.478 339.305 315.579 338.705 315.705 338.245C315.831 337.76 316.134 337.517 316.614 337.517H318.697C319.328 337.517 319.833 337.594 320.211 337.747C320.615 337.875 320.918 338.104 321.12 338.436C321.347 338.743 321.499 339.151 321.575 339.662C321.65 340.173 321.688 340.798 321.688 341.539C321.688 342.05 321.663 342.726 321.612 343.569C321.587 344.412 321.537 345.267 321.461 346.135C321.41 347.004 321.347 347.808 321.272 348.549C321.196 349.264 321.133 349.762 321.082 350.042C321.032 350.272 320.969 350.425 320.893 350.502C320.817 350.579 320.666 350.617 320.439 350.617H318.356Z"/>
<path d="M329.703 350.617C328.289 350.617 327.279 350.336 326.673 349.774C326.068 349.212 325.765 348.408 325.765 347.361C325.765 346.85 325.803 345.982 325.878 344.756C325.954 343.505 326.055 342.088 326.181 340.505C326.307 338.922 326.434 337.249 326.56 335.487C326.686 333.725 326.812 332.065 326.939 330.508C327.065 328.95 327.166 327.584 327.241 326.409C327.317 325.234 327.355 324.43 327.355 323.996C327.355 323.613 327.557 323.421 327.961 323.421H341.291C341.442 323.421 341.581 323.46 341.707 323.536C341.833 323.613 341.897 323.753 341.897 323.958L341.745 326.218C341.695 326.984 341.48 327.609 341.101 328.094C340.748 328.554 340.003 328.784 338.867 328.784H333.641L333.263 334.185H338.64C338.791 334.185 338.93 334.223 339.056 334.3C339.183 334.376 339.246 334.517 339.246 334.721L339.094 336.981C339.044 337.747 338.829 338.373 338.451 338.858C338.097 339.317 337.352 339.547 336.216 339.547H332.922L332.505 345.254H340.836C340.988 345.254 341.127 345.306 341.253 345.408C341.379 345.484 341.442 345.612 341.442 345.791L341.291 348.051C341.24 348.817 341.026 349.442 340.647 349.927C340.293 350.387 339.549 350.617 338.413 350.617H329.703Z"/>
</mask>
<path d="M187.965 350.617C186.93 350.617 186.16 350.464 185.655 350.157C185.15 349.851 184.784 349.468 184.557 349.008C183.244 346.276 182.007 343.658 180.846 341.156C179.71 338.653 178.548 336.125 177.362 333.572C177.387 336.33 177.425 339.075 177.475 341.807C177.526 344.539 177.576 347.285 177.627 350.042C177.627 350.425 177.425 350.617 177.021 350.617H174.938C173.499 350.617 172.477 350.336 171.871 349.774C171.29 349.187 171 348.332 171 347.208C171 346.902 171.013 346.391 171.038 345.676C171.088 344.935 171.151 344.067 171.227 343.071C171.303 342.075 171.379 340.99 171.454 339.815C171.555 338.615 171.656 337.402 171.757 336.176C171.909 334.236 172.035 332.627 172.136 331.35C172.237 330.073 172.313 329.001 172.363 328.133C172.439 327.239 172.489 326.486 172.515 325.873C172.54 325.234 172.565 324.609 172.59 323.996C172.59 323.613 172.792 323.421 173.196 323.421H176.226C177.059 323.421 177.741 323.523 178.271 323.728C178.801 323.907 179.23 324.162 179.558 324.494C179.912 324.826 180.189 325.209 180.391 325.643C180.593 326.052 180.783 326.486 180.959 326.945C181.565 328.528 182.095 329.895 182.55 331.044C183.03 332.193 183.446 333.202 183.799 334.07C184.153 334.938 184.456 335.691 184.708 336.33C184.986 336.968 185.238 337.555 185.466 338.092C185.693 338.628 185.92 339.151 186.147 339.662C186.375 340.147 186.614 340.684 186.867 341.271C186.867 339.764 186.854 338.219 186.829 336.636C186.829 335.027 186.816 333.47 186.791 331.963C186.791 330.431 186.778 328.963 186.753 327.558C186.753 326.154 186.753 324.89 186.753 323.766C186.753 323.536 186.968 323.421 187.397 323.421H189.48C190.313 323.421 190.969 323.511 191.449 323.689C191.954 323.843 192.345 324.085 192.623 324.417C192.901 324.724 193.077 325.107 193.153 325.566C193.254 326.026 193.304 326.549 193.304 327.137C193.304 327.775 193.267 328.758 193.191 330.086C193.115 331.389 193.027 332.857 192.926 334.491C192.825 336.125 192.711 337.824 192.585 339.585C192.459 341.322 192.332 342.931 192.206 344.412C192.105 345.893 192.004 347.157 191.903 348.204C191.828 349.225 191.777 349.825 191.752 350.004C191.752 350.208 191.676 350.362 191.525 350.464C191.398 350.566 191.247 350.617 191.07 350.617H187.965Z" fill="black"/>
<path d="M210.477 323C212.32 323 213.898 323.268 215.21 323.804C216.523 324.315 217.596 325.081 218.429 326.103C219.262 327.098 219.868 328.324 220.247 329.78C220.626 331.21 220.815 332.844 220.815 334.683C220.815 335.704 220.739 336.815 220.588 338.015C220.461 339.215 220.209 340.428 219.83 341.654C219.477 342.854 218.985 344.016 218.353 345.14C217.722 346.263 216.902 347.259 215.892 348.127C214.907 348.995 213.721 349.698 212.332 350.234C210.944 350.745 209.303 351 207.41 351C205.314 351 203.572 350.681 202.184 350.042C200.82 349.404 199.722 348.549 198.889 347.476C198.081 346.378 197.501 345.088 197.147 343.607C196.819 342.126 196.655 340.543 196.655 338.858C196.655 336.866 196.882 334.925 197.337 333.036C197.791 331.12 198.548 329.422 199.609 327.941C200.694 326.46 202.121 325.273 203.888 324.379C205.655 323.46 207.851 323 210.477 323ZM209.682 328.937C208.798 328.937 208.028 329.103 207.372 329.435C206.741 329.741 206.198 330.163 205.743 330.699C205.314 331.235 204.961 331.835 204.683 332.499C204.431 333.163 204.229 333.853 204.077 334.568C203.926 335.257 203.825 335.934 203.774 336.598C203.724 337.236 203.698 337.811 203.698 338.321C203.698 340.645 204.077 342.343 204.834 343.416C205.617 344.488 206.715 345.025 208.129 345.025C209.29 345.025 210.237 344.654 210.969 343.914C211.701 343.148 212.269 342.241 212.673 341.194C213.102 340.122 213.393 339.024 213.544 337.9C213.696 336.751 213.771 335.781 213.771 334.989C213.771 333.125 213.456 331.657 212.825 330.584C212.194 329.486 211.146 328.937 209.682 328.937Z" fill="black"/>
<path d="M236.068 350.617C234.654 350.617 233.644 350.336 233.038 349.774C232.432 349.212 232.129 348.408 232.129 347.361C232.129 346.85 232.167 345.982 232.243 344.756C232.319 343.505 232.42 342.088 232.546 340.505C232.672 338.922 232.798 337.249 232.924 335.487C233.051 333.725 233.177 332.065 233.303 330.508C233.429 328.95 233.53 327.584 233.606 326.409C233.682 325.234 233.72 324.43 233.72 323.996C233.72 323.613 233.922 323.421 234.326 323.421H236.408C237.948 323.421 238.983 323.753 239.514 324.417C240.044 325.081 240.309 326.064 240.309 327.367C240.309 327.494 240.284 327.903 240.233 328.592C240.208 329.282 240.157 330.15 240.082 331.197C240.006 332.244 239.918 333.419 239.817 334.721C239.741 335.998 239.652 337.313 239.551 338.666C239.476 340.02 239.387 341.347 239.286 342.65C239.211 343.927 239.135 345.088 239.059 346.135C238.983 347.182 238.92 348.063 238.87 348.778C238.819 349.468 238.781 349.889 238.756 350.042C238.731 350.247 238.68 350.4 238.605 350.502C238.529 350.579 238.378 350.617 238.15 350.617H236.068Z" fill="black"/>
<path d="M268.046 330.201C267.844 330.814 267.579 331.618 267.25 332.614C266.947 333.585 266.607 334.657 266.228 335.832C265.849 337.006 265.458 338.258 265.054 339.585C264.65 340.888 264.234 342.165 263.804 343.416C263.4 344.667 262.996 345.867 262.593 347.016C262.189 348.14 261.823 349.123 261.494 349.966C261.393 350.17 261.179 350.336 260.851 350.464C260.548 350.566 260.055 350.617 259.374 350.617C258.945 350.617 258.503 350.591 258.048 350.54C257.594 350.489 257.165 350.387 256.761 350.234C256.382 350.081 256.041 349.876 255.738 349.621C255.461 349.366 255.246 349.047 255.095 348.663C254.716 347.361 254.35 345.918 253.996 344.335C253.668 342.726 253.34 341.092 253.012 339.432C252.684 337.772 252.355 336.151 252.027 334.568C251.724 332.959 251.409 331.503 251.081 330.201C251.081 330.559 251.068 331.171 251.043 332.04C251.017 332.908 250.992 333.917 250.967 335.066C250.942 336.215 250.904 337.453 250.853 338.781C250.828 340.109 250.803 341.411 250.778 342.688C250.752 343.939 250.727 345.114 250.702 346.212C250.677 347.285 250.664 348.166 250.664 348.855C250.664 349.621 250.614 350.106 250.513 350.311C250.437 350.515 250.285 350.617 250.058 350.617H247.975C246.536 350.617 245.514 350.336 244.908 349.774C244.327 349.187 244.037 348.332 244.037 347.208C244.037 346.902 244.05 346.391 244.075 345.676C244.125 344.935 244.189 344.067 244.264 343.071C244.34 342.075 244.416 340.99 244.491 339.815C244.592 338.615 244.693 337.402 244.794 336.176C244.921 334.517 245.022 333.138 245.097 332.04C245.198 330.916 245.274 329.984 245.325 329.244C245.375 328.503 245.413 327.903 245.438 327.443C245.489 326.984 245.514 326.575 245.514 326.218C245.539 325.86 245.552 325.528 245.552 325.222C245.577 324.89 245.59 324.481 245.59 323.996C245.59 323.792 245.665 323.651 245.817 323.575C245.968 323.472 246.107 323.421 246.233 323.421H251.535C252.52 323.421 253.327 323.587 253.959 323.919C254.59 324.226 255.107 324.711 255.511 325.375C255.915 326.039 256.243 326.907 256.496 327.979C256.748 329.026 256.975 330.278 257.177 331.733C257.405 333.189 257.644 334.874 257.897 336.789C258.175 338.679 258.528 340.811 258.957 343.186C259.361 341.603 259.702 340.288 259.98 339.241C260.257 338.194 260.485 337.326 260.661 336.636C260.863 335.921 261.027 335.334 261.154 334.874C261.28 334.415 261.393 333.993 261.494 333.61C261.595 333.202 261.709 332.767 261.835 332.308C261.961 331.848 262.113 331.274 262.29 330.584C262.466 329.895 262.681 329.039 262.933 328.018C263.211 326.971 263.552 325.656 263.956 324.073C264.006 323.919 264.095 323.779 264.221 323.651C264.347 323.498 264.574 323.421 264.903 323.421H270.81C271.618 323.421 272.262 323.511 272.741 323.689C273.246 323.843 273.637 324.073 273.915 324.379C274.193 324.685 274.382 325.068 274.483 325.528C274.584 325.962 274.635 326.473 274.635 327.06C274.635 327.648 274.597 328.605 274.521 329.933C274.471 331.235 274.382 332.716 274.256 334.376C274.155 336.01 274.041 337.709 273.915 339.471C273.814 341.233 273.701 342.867 273.574 344.373C273.473 345.88 273.385 347.157 273.309 348.204C273.234 349.251 273.183 349.864 273.158 350.042C273.133 350.247 273.082 350.4 273.006 350.502C272.931 350.579 272.779 350.617 272.552 350.617H270.469C269.03 350.617 268.008 350.336 267.402 349.774C266.821 349.187 266.531 348.434 266.531 347.514C266.531 347.233 266.556 346.723 266.607 345.982C266.682 345.242 266.771 344.373 266.872 343.378C266.973 342.382 267.086 341.296 267.212 340.122C267.339 338.922 267.452 337.734 267.553 336.56C267.654 335.385 267.743 334.249 267.818 333.15C267.919 332.027 267.995 331.044 268.046 330.201Z" fill="black"/>
<path d="M290.358 323.421C290.989 323.421 291.506 323.549 291.91 323.804C292.34 324.034 292.693 324.353 292.971 324.762C293.248 325.145 293.476 325.592 293.652 326.103C293.829 326.613 293.98 327.137 294.107 327.673C295.117 331.81 295.95 335.219 296.606 337.9C297.262 340.581 297.78 342.752 298.159 344.412C298.537 346.046 298.802 347.259 298.954 348.051C299.105 348.842 299.181 349.391 299.181 349.698C299.181 350.055 299.093 350.298 298.916 350.425C298.765 350.553 298.512 350.617 298.159 350.617H296.227C295.142 350.617 294.271 350.489 293.614 350.234C292.983 349.953 292.491 349.557 292.138 349.047C291.809 348.536 291.57 347.923 291.418 347.208C291.267 346.467 291.14 345.637 291.039 344.718H284.45L283.201 350.004C283.074 350.413 282.784 350.617 282.33 350.617H280.323C279.919 350.617 279.502 350.579 279.073 350.502C278.644 350.4 278.253 350.247 277.899 350.042C277.571 349.838 277.293 349.583 277.066 349.276C276.839 348.944 276.725 348.549 276.725 348.089C276.725 347.527 276.902 346.608 277.255 345.331C277.609 344.054 278.051 342.611 278.581 341.003C279.136 339.368 279.742 337.67 280.398 335.908C281.08 334.121 281.736 332.435 282.368 330.852C282.999 329.269 283.567 327.877 284.072 326.677C284.602 325.477 285.006 324.634 285.283 324.149C285.485 323.792 285.662 323.587 285.814 323.536C285.99 323.46 286.306 323.421 286.76 323.421H290.358ZM285.814 339.164H290.168L288.578 329.052L285.814 339.164Z" fill="black"/>
<path d="M318.356 350.617C317.043 350.617 316.096 350.349 315.516 349.813C314.96 349.251 314.657 348.561 314.607 347.744C314.329 348.612 313.736 349.378 312.827 350.042C311.943 350.681 310.656 351 308.964 351C307.98 351 307.02 350.808 306.086 350.425C305.152 350.017 304.319 349.353 303.587 348.434C302.855 347.514 302.262 346.289 301.807 344.756C301.378 343.224 301.164 341.322 301.164 339.049C301.164 338.181 301.214 337.185 301.315 336.062C301.416 334.912 301.618 333.751 301.921 332.576C302.249 331.376 302.704 330.214 303.284 329.09C303.89 327.941 304.673 326.92 305.632 326.026C306.617 325.132 307.816 324.417 309.229 323.881C310.643 323.319 312.335 323.038 314.304 323.038C315.591 323.038 316.74 323.179 317.75 323.46C318.785 323.741 319.656 324.136 320.363 324.647C321.095 325.158 321.65 325.783 322.029 326.524C322.433 327.264 322.635 328.094 322.635 329.014C322.635 330.495 322.155 331.618 321.196 332.384C320.237 333.125 318.886 333.495 317.144 333.495C316.589 333.495 316.248 333.457 316.122 333.38C316.021 333.278 315.957 333.087 315.932 332.806C315.882 332.346 315.844 331.886 315.819 331.427C315.819 330.967 315.755 330.546 315.629 330.163C315.528 329.78 315.339 329.473 315.061 329.244C314.784 329.014 314.342 328.899 313.736 328.899C312.499 328.899 311.514 329.256 310.782 329.971C310.05 330.686 309.495 331.554 309.116 332.576C308.737 333.597 308.497 334.657 308.396 335.755C308.295 336.828 308.245 337.734 308.245 338.475C308.245 339.7 308.321 340.735 308.472 341.577C308.624 342.394 308.838 343.071 309.116 343.607C309.419 344.118 309.772 344.488 310.176 344.718C310.58 344.922 311.047 345.025 311.577 345.025C312.537 345.025 313.345 344.82 314.001 344.412C314.657 344.003 315.049 343.263 315.175 342.19L315.402 340.045C315.478 339.305 315.579 338.705 315.705 338.245C315.831 337.76 316.134 337.517 316.614 337.517H318.697C319.328 337.517 319.833 337.594 320.211 337.747C320.615 337.875 320.918 338.104 321.12 338.436C321.347 338.743 321.499 339.151 321.575 339.662C321.65 340.173 321.688 340.798 321.688 341.539C321.688 342.05 321.663 342.726 321.612 343.569C321.587 344.412 321.537 345.267 321.461 346.135C321.41 347.004 321.347 347.808 321.272 348.549C321.196 349.264 321.133 349.762 321.082 350.042C321.032 350.272 320.969 350.425 320.893 350.502C320.817 350.579 320.666 350.617 320.439 350.617H318.356Z" fill="black"/>
<path d="M329.703 350.617C328.289 350.617 327.279 350.336 326.673 349.774C326.068 349.212 325.765 348.408 325.765 347.361C325.765 346.85 325.803 345.982 325.878 344.756C325.954 343.505 326.055 342.088 326.181 340.505C326.307 338.922 326.434 337.249 326.56 335.487C326.686 333.725 326.812 332.065 326.939 330.508C327.065 328.95 327.166 327.584 327.241 326.409C327.317 325.234 327.355 324.43 327.355 323.996C327.355 323.613 327.557 323.421 327.961 323.421H341.291C341.442 323.421 341.581 323.46 341.707 323.536C341.833 323.613 341.897 323.753 341.897 323.958L341.745 326.218C341.695 326.984 341.48 327.609 341.101 328.094C340.748 328.554 340.003 328.784 338.867 328.784H333.641L333.263 334.185H338.64C338.791 334.185 338.93 334.223 339.056 334.3C339.183 334.376 339.246 334.517 339.246 334.721L339.094 336.981C339.044 337.747 338.829 338.373 338.451 338.858C338.097 339.317 337.352 339.547 336.216 339.547H332.922L332.505 345.254H340.836C340.988 345.254 341.127 345.306 341.253 345.408C341.379 345.484 341.442 345.612 341.442 345.791L341.291 348.051C341.24 348.817 341.026 349.442 340.647 349.927C340.293 350.387 339.549 350.617 338.413 350.617H329.703Z" fill="black"/>
<path d="M187.965 350.617C186.93 350.617 186.16 350.464 185.655 350.157C185.15 349.851 184.784 349.468 184.557 349.008C183.244 346.276 182.007 343.658 180.846 341.156C179.71 338.653 178.548 336.125 177.362 333.572C177.387 336.33 177.425 339.075 177.475 341.807C177.526 344.539 177.576 347.285 177.627 350.042C177.627 350.425 177.425 350.617 177.021 350.617H174.938C173.499 350.617 172.477 350.336 171.871 349.774C171.29 349.187 171 348.332 171 347.208C171 346.902 171.013 346.391 171.038 345.676C171.088 344.935 171.151 344.067 171.227 343.071C171.303 342.075 171.379 340.99 171.454 339.815C171.555 338.615 171.656 337.402 171.757 336.176C171.909 334.236 172.035 332.627 172.136 331.35C172.237 330.073 172.313 329.001 172.363 328.133C172.439 327.239 172.489 326.486 172.515 325.873C172.54 325.234 172.565 324.609 172.59 323.996C172.59 323.613 172.792 323.421 173.196 323.421H176.226C177.059 323.421 177.741 323.523 178.271 323.728C178.801 323.907 179.23 324.162 179.558 324.494C179.912 324.826 180.189 325.209 180.391 325.643C180.593 326.052 180.783 326.486 180.959 326.945C181.565 328.528 182.095 329.895 182.55 331.044C183.03 332.193 183.446 333.202 183.799 334.07C184.153 334.938 184.456 335.691 184.708 336.33C184.986 336.968 185.238 337.555 185.466 338.092C185.693 338.628 185.92 339.151 186.147 339.662C186.375 340.147 186.614 340.684 186.867 341.271C186.867 339.764 186.854 338.219 186.829 336.636C186.829 335.027 186.816 333.47 186.791 331.963C186.791 330.431 186.778 328.963 186.753 327.558C186.753 326.154 186.753 324.89 186.753 323.766C186.753 323.536 186.968 323.421 187.397 323.421H189.48C190.313 323.421 190.969 323.511 191.449 323.689C191.954 323.843 192.345 324.085 192.623 324.417C192.901 324.724 193.077 325.107 193.153 325.566C193.254 326.026 193.304 326.549 193.304 327.137C193.304 327.775 193.267 328.758 193.191 330.086C193.115 331.389 193.027 332.857 192.926 334.491C192.825 336.125 192.711 337.824 192.585 339.585C192.459 341.322 192.332 342.931 192.206 344.412C192.105 345.893 192.004 347.157 191.903 348.204C191.828 349.225 191.777 349.825 191.752 350.004C191.752 350.208 191.676 350.362 191.525 350.464C191.398 350.566 191.247 350.617 191.07 350.617H187.965Z" stroke="white" stroke-width="8" mask="url(#path-5-outside-1)"/>
<path d="M210.477 323C212.32 323 213.898 323.268 215.21 323.804C216.523 324.315 217.596 325.081 218.429 326.103C219.262 327.098 219.868 328.324 220.247 329.78C220.626 331.21 220.815 332.844 220.815 334.683C220.815 335.704 220.739 336.815 220.588 338.015C220.461 339.215 220.209 340.428 219.83 341.654C219.477 342.854 218.985 344.016 218.353 345.14C217.722 346.263 216.902 347.259 215.892 348.127C214.907 348.995 213.721 349.698 212.332 350.234C210.944 350.745 209.303 351 207.41 351C205.314 351 203.572 350.681 202.184 350.042C200.82 349.404 199.722 348.549 198.889 347.476C198.081 346.378 197.501 345.088 197.147 343.607C196.819 342.126 196.655 340.543 196.655 338.858C196.655 336.866 196.882 334.925 197.337 333.036C197.791 331.12 198.548 329.422 199.609 327.941C200.694 326.46 202.121 325.273 203.888 324.379C205.655 323.46 207.851 323 210.477 323ZM209.682 328.937C208.798 328.937 208.028 329.103 207.372 329.435C206.741 329.741 206.198 330.163 205.743 330.699C205.314 331.235 204.961 331.835 204.683 332.499C204.431 333.163 204.229 333.853 204.077 334.568C203.926 335.257 203.825 335.934 203.774 336.598C203.724 337.236 203.698 337.811 203.698 338.321C203.698 340.645 204.077 342.343 204.834 343.416C205.617 344.488 206.715 345.025 208.129 345.025C209.29 345.025 210.237 344.654 210.969 343.914C211.701 343.148 212.269 342.241 212.673 341.194C213.102 340.122 213.393 339.024 213.544 337.9C213.696 336.751 213.771 335.781 213.771 334.989C213.771 333.125 213.456 331.657 212.825 330.584C212.194 329.486 211.146 328.937 209.682 328.937Z" stroke="white" stroke-width="8" mask="url(#path-5-outside-1)"/>
<path d="M236.068 350.617C234.654 350.617 233.644 350.336 233.038 349.774C232.432 349.212 232.129 348.408 232.129 347.361C232.129 346.85 232.167 345.982 232.243 344.756C232.319 343.505 232.42 342.088 232.546 340.505C232.672 338.922 232.798 337.249 232.924 335.487C233.051 333.725 233.177 332.065 233.303 330.508C233.429 328.95 233.53 327.584 233.606 326.409C233.682 325.234 233.72 324.43 233.72 323.996C233.72 323.613 233.922 323.421 234.326 323.421H236.408C237.948 323.421 238.983 323.753 239.514 324.417C240.044 325.081 240.309 326.064 240.309 327.367C240.309 327.494 240.284 327.903 240.233 328.592C240.208 329.282 240.157 330.15 240.082 331.197C240.006 332.244 239.918 333.419 239.817 334.721C239.741 335.998 239.652 337.313 239.551 338.666C239.476 340.02 239.387 341.347 239.286 342.65C239.211 343.927 239.135 345.088 239.059 346.135C238.983 347.182 238.92 348.063 238.87 348.778C238.819 349.468 238.781 349.889 238.756 350.042C238.731 350.247 238.68 350.4 238.605 350.502C238.529 350.579 238.378 350.617 238.15 350.617H236.068Z" stroke="white" stroke-width="8" mask="url(#path-5-outside-1)"/>
<path d="M268.046 330.201C267.844 330.814 267.579 331.618 267.25 332.614C266.947 333.585 266.607 334.657 266.228 335.832C265.849 337.006 265.458 338.258 265.054 339.585C264.65 340.888 264.234 342.165 263.804 343.416C263.4 344.667 262.996 345.867 262.593 347.016C262.189 348.14 261.823 349.123 261.494 349.966C261.393 350.17 261.179 350.336 260.851 350.464C260.548 350.566 260.055 350.617 259.374 350.617C258.945 350.617 258.503 350.591 258.048 350.54C257.594 350.489 257.165 350.387 256.761 350.234C256.382 350.081 256.041 349.876 255.738 349.621C255.461 349.366 255.246 349.047 255.095 348.663C254.716 347.361 254.35 345.918 253.996 344.335C253.668 342.726 253.34 341.092 253.012 339.432C252.684 337.772 252.355 336.151 252.027 334.568C251.724 332.959 251.409 331.503 251.081 330.201C251.081 330.559 251.068 331.171 251.043 332.04C251.017 332.908 250.992 333.917 250.967 335.066C250.942 336.215 250.904 337.453 250.853 338.781C250.828 340.109 250.803 341.411 250.778 342.688C250.752 343.939 250.727 345.114 250.702 346.212C250.677 347.285 250.664 348.166 250.664 348.855C250.664 349.621 250.614 350.106 250.513 350.311C250.437 350.515 250.285 350.617 250.058 350.617H247.975C246.536 350.617 245.514 350.336 244.908 349.774C244.327 349.187 244.037 348.332 244.037 347.208C244.037 346.902 244.05 346.391 244.075 345.676C244.125 344.935 244.189 344.067 244.264 343.071C244.34 342.075 244.416 340.99 244.491 339.815C244.592 338.615 244.693 337.402 244.794 336.176C244.921 334.517 245.022 333.138 245.097 332.04C245.198 330.916 245.274 329.984 245.325 329.244C245.375 328.503 245.413 327.903 245.438 327.443C245.489 326.984 245.514 326.575 245.514 326.218C245.539 325.86 245.552 325.528 245.552 325.222C245.577 324.89 245.59 324.481 245.59 323.996C245.59 323.792 245.665 323.651 245.817 323.575C245.968 323.472 246.107 323.421 246.233 323.421H251.535C252.52 323.421 253.327 323.587 253.959 323.919C254.59 324.226 255.107 324.711 255.511 325.375C255.915 326.039 256.243 326.907 256.496 327.979C256.748 329.026 256.975 330.278 257.177 331.733C257.405 333.189 257.644 334.874 257.897 336.789C258.175 338.679 258.528 340.811 258.957 343.186C259.361 341.603 259.702 340.288 259.98 339.241C260.257 338.194 260.485 337.326 260.661 336.636C260.863 335.921 261.027 335.334 261.154 334.874C261.28 334.415 261.393 333.993 261.494 333.61C261.595 333.202 261.709 332.767 261.835 332.308C261.961 331.848 262.113 331.274 262.29 330.584C262.466 329.895 262.681 329.039 262.933 328.018C263.211 326.971 263.552 325.656 263.956 324.073C264.006 323.919 264.095 323.779 264.221 323.651C264.347 323.498 264.574 323.421 264.903 323.421H270.81C271.618 323.421 272.262 323.511 272.741 323.689C273.246 323.843 273.637 324.073 273.915 324.379C274.193 324.685 274.382 325.068 274.483 325.528C274.584 325.962 274.635 326.473 274.635 327.06C274.635 327.648 274.597 328.605 274.521 329.933C274.471 331.235 274.382 332.716 274.256 334.376C274.155 336.01 274.041 337.709 273.915 339.471C273.814 341.233 273.701 342.867 273.574 344.373C273.473 345.88 273.385 347.157 273.309 348.204C273.234 349.251 273.183 349.864 273.158 350.042C273.133 350.247 273.082 350.4 273.006 350.502C272.931 350.579 272.779 350.617 272.552 350.617H270.469C269.03 350.617 268.008 350.336 267.402 349.774C266.821 349.187 266.531 348.434 266.531 347.514C266.531 347.233 266.556 346.723 266.607 345.982C266.682 345.242 266.771 344.373 266.872 343.378C266.973 342.382 267.086 341.296 267.212 340.122C267.339 338.922 267.452 337.734 267.553 336.56C267.654 335.385 267.743 334.249 267.818 333.15C267.919 332.027 267.995 331.044 268.046 330.201Z" stroke="white" stroke-width="8" mask="url(#path-5-outside-1)"/>
<path d="M290.358 323.421C290.989 323.421 291.506 323.549 291.91 323.804C292.34 324.034 292.693 324.353 292.971 324.762C293.248 325.145 293.476 325.592 293.652 326.103C293.829 326.613 293.98 327.137 294.107 327.673C295.117 331.81 295.95 335.219 296.606 337.9C297.262 340.581 297.78 342.752 298.159 344.412C298.537 346.046 298.802 347.259 298.954 348.051C299.105 348.842 299.181 349.391 299.181 349.698C299.181 350.055 299.093 350.298 298.916 350.425C298.765 350.553 298.512 350.617 298.159 350.617H296.227C295.142 350.617 294.271 350.489 293.614 350.234C292.983 349.953 292.491 349.557 292.138 349.047C291.809 348.536 291.57 347.923 291.418 347.208C291.267 346.467 291.14 345.637 291.039 344.718H284.45L283.201 350.004C283.074 350.413 282.784 350.617 282.33 350.617H280.323C279.919 350.617 279.502 350.579 279.073 350.502C278.644 350.4 278.253 350.247 277.899 350.042C277.571 349.838 277.293 349.583 277.066 349.276C276.839 348.944 276.725 348.549 276.725 348.089C276.725 347.527 276.902 346.608 277.255 345.331C277.609 344.054 278.051 342.611 278.581 341.003C279.136 339.368 279.742 337.67 280.398 335.908C281.08 334.121 281.736 332.435 282.368 330.852C282.999 329.269 283.567 327.877 284.072 326.677C284.602 325.477 285.006 324.634 285.283 324.149C285.485 323.792 285.662 323.587 285.814 323.536C285.99 323.46 286.306 323.421 286.76 323.421H290.358ZM285.814 339.164H290.168L288.578 329.052L285.814 339.164Z" stroke="white" stroke-width="8" mask="url(#path-5-outside-1)"/>
<path d="M318.356 350.617C317.043 350.617 316.096 350.349 315.516 349.813C314.96 349.251 314.657 348.561 314.607 347.744C314.329 348.612 313.736 349.378 312.827 350.042C311.943 350.681 310.656 351 308.964 351C307.98 351 307.02 350.808 306.086 350.425C305.152 350.017 304.319 349.353 303.587 348.434C302.855 347.514 302.262 346.289 301.807 344.756C301.378 343.224 301.164 341.322 301.164 339.049C301.164 338.181 301.214 337.185 301.315 336.062C301.416 334.912 301.618 333.751 301.921 332.576C302.249 331.376 302.704 330.214 303.284 329.09C303.89 327.941 304.673 326.92 305.632 326.026C306.617 325.132 307.816 324.417 309.229 323.881C310.643 323.319 312.335 323.038 314.304 323.038C315.591 323.038 316.74 323.179 317.75 323.46C318.785 323.741 319.656 324.136 320.363 324.647C321.095 325.158 321.65 325.783 322.029 326.524C322.433 327.264 322.635 328.094 322.635 329.014C322.635 330.495 322.155 331.618 321.196 332.384C320.237 333.125 318.886 333.495 317.144 333.495C316.589 333.495 316.248 333.457 316.122 333.38C316.021 333.278 315.957 333.087 315.932 332.806C315.882 332.346 315.844 331.886 315.819 331.427C315.819 330.967 315.755 330.546 315.629 330.163C315.528 329.78 315.339 329.473 315.061 329.244C314.784 329.014 314.342 328.899 313.736 328.899C312.499 328.899 311.514 329.256 310.782 329.971C310.05 330.686 309.495 331.554 309.116 332.576C308.737 333.597 308.497 334.657 308.396 335.755C308.295 336.828 308.245 337.734 308.245 338.475C308.245 339.7 308.321 340.735 308.472 341.577C308.624 342.394 308.838 343.071 309.116 343.607C309.419 344.118 309.772 344.488 310.176 344.718C310.58 344.922 311.047 345.025 311.577 345.025C312.537 345.025 313.345 344.82 314.001 344.412C314.657 344.003 315.049 343.263 315.175 342.19L315.402 340.045C315.478 339.305 315.579 338.705 315.705 338.245C315.831 337.76 316.134 337.517 316.614 337.517H318.697C319.328 337.517 319.833 337.594 320.211 337.747C320.615 337.875 320.918 338.104 321.12 338.436C321.347 338.743 321.499 339.151 321.575 339.662C321.65 340.173 321.688 340.798 321.688 341.539C321.688 342.05 321.663 342.726 321.612 343.569C321.587 344.412 321.537 345.267 321.461 346.135C321.41 347.004 321.347 347.808 321.272 348.549C321.196 349.264 321.133 349.762 321.082 350.042C321.032 350.272 320.969 350.425 320.893 350.502C320.817 350.579 320.666 350.617 320.439 350.617H318.356Z" stroke="white" stroke-width="8" mask="url(#path-5-outside-1)"/>
<path d="M329.703 350.617C328.289 350.617 327.279 350.336 326.673 349.774C326.068 349.212 325.765 348.408 325.765 347.361C325.765 346.85 325.803 345.982 325.878 344.756C325.954 343.505 326.055 342.088 326.181 340.505C326.307 338.922 326.434 337.249 326.56 335.487C326.686 333.725 326.812 332.065 326.939 330.508C327.065 328.95 327.166 327.584 327.241 326.409C327.317 325.234 327.355 324.43 327.355 323.996C327.355 323.613 327.557 323.421 327.961 323.421H341.291C341.442 323.421 341.581 323.46 341.707 323.536C341.833 323.613 341.897 323.753 341.897 323.958L341.745 326.218C341.695 326.984 341.48 327.609 341.101 328.094C340.748 328.554 340.003 328.784 338.867 328.784H333.641L333.263 334.185H338.64C338.791 334.185 338.93 334.223 339.056 334.3C339.183 334.376 339.246 334.517 339.246 334.721L339.094 336.981C339.044 337.747 338.829 338.373 338.451 338.858C338.097 339.317 337.352 339.547 336.216 339.547H332.922L332.505 345.254H340.836C340.988 345.254 341.127 345.306 341.253 345.408C341.379 345.484 341.442 345.612 341.442 345.791L341.291 348.051C341.24 348.817 341.026 349.442 340.647 349.927C340.293 350.387 339.549 350.617 338.413 350.617H329.703Z" stroke="white" stroke-width="8" mask="url(#path-5-outside-1)"/>
</svg>
